<?xml version="1.0" standalone="no"?>
<!DOCTYPE svg PUBLIC "-//W3C//DTD SVG 20010904//EN"
 "http://www.w3.org/TR/2001/REC-SVG-20010904/DTD/svg10.dtd">
<svg version="1.0" xmlns="http://www.w3.org/2000/svg"
 width="417.000000pt" height="417.000000pt" viewBox="0 0 417.000000 417.000000"
 preserveAspectRatio="xMidYMid meet">

<g transform="translate(0.000000,417.000000) scale(0.100000,-0.100000)"
fill="#000000" stroke="none">
<path d="M1645 3436 l-410 -103 -3 -31 c-6 -59 -112 -129 -307 -200 l-80 -30
0 -628 1 -629 26 -98 c52 -190 154 -367 305 -527 185 -197 481 -391 799 -525
l111 -47 124 52 c68 28 162 72 209 98 534 288 831 630 899 1037 9 50 11 243 9
669 l-3 598 -75 28 c-97 35 -228 101 -268 135 -24 20 -32 35 -32 60 0 23 -5
35 -17 39 -76 23 -841 206 -857 205 -12 -1 -205 -47 -431 -103z m853 -102
l392 -96 0 -29 c0 -18 9 -39 23 -52 34 -35 163 -102 255 -133 l84 -28 -5 -580
c-5 -616 -6 -626 -56 -760 -93 -249 -277 -461 -576 -664 -108 -73 -305 -176
-434 -227 l-94 -37 -101 43 c-457 193 -764 440 -945 761 -17 31 -41 83 -52
115 -52 145 -52 141 -56 764 l-4 586 78 28 c88 32 178 75 235 112 33 22 38 31
38 63 l0 37 318 77 c174 43 349 86 387 96 39 10 81 19 95 19 14 1 202 -42 418
-95z"/>
<path d="M1704 3314 l-382 -95 -6 -34 c-5 -25 -19 -43 -56 -70 -50 -37 -157
-89 -248 -121 l-53 -18 4 -571 c4 -609 5 -611 57 -750 65 -172 199 -352 360
-488 180 -150 399 -283 608 -367 l103 -41 67 26 c287 114 563 293 743 483 164
174 243 310 295 512 15 56 18 141 21 630 l4 565 -53 18 c-93 32 -235 105 -272
140 -23 22 -36 44 -36 60 0 25 -4 26 -377 117 -208 51 -382 94 -388 95 -5 2
-182 -39 -391 -91z m413 -470 c3 -8 1 -26 -5 -40 -7 -15 -8 -24 -2 -24 6 0 10
-4 10 -10 0 -6 -30 -10 -70 -10 -62 0 -70 2 -70 19 0 11 -2 25 -5 33 -3 7 0
20 5 28 8 13 12 13 27 -4 13 -13 15 -20 6 -23 -22 -8 -15 -36 7 -30 11 3 23 0
26 -5 8 -13 44 31 43 52 0 10 -2 11 -6 3 -5 -14 -33 -18 -33 -5 0 29 56 43 67
16z m74 0 c11 -14 13 -14 21 0 11 19 39 21 57 4 11 -10 14 -10 18 0 7 18 63
16 63 -3 0 -9 -10 -15 -22 -16 -21 -1 -21 -2 -3 -6 27 -7 36 -23 24 -44 -7
-14 -23 -17 -74 -18 -36 0 -65 2 -65 5 0 3 9 17 20 31 27 34 25 44 -5 30 -14
-7 -25 -22 -27 -37 -2 -20 -8 -25 -33 -25 -27 0 -30 4 -33 33 -5 53 30 81 59
46z m-231 -25 c0 -5 -5 -9 -12 -9 -6 0 -4 -6 7 -13 29 -22 9 -35 -55 -35 -65
0 -87 16 -69 49 7 13 23 17 69 17 33 0 60 -4 60 -9z m950 -199 c0 -7 -280 -10
-820 -10 -540 0 -820 3 -820 10 0 7 280 10 820 10 540 0 820 -3 820 -10z
m-1318 -292 l3 -83 38 -3 c29 -3 37 -7 37 -23 0 -17 -7 -19 -65 -19 l-65 0 0
105 c0 105 0 105 25 105 24 0 24 -2 27 -82z m146 -25 l3 -103 -31 0 -30 0 0
98 c0 54 3 102 7 106 4 4 16 6 28 4 18 -3 20 -11 23 -105z m150 91 c23 -16 29
-53 12 -70 -8 -8 -6 -15 5 -24 8 -7 15 -25 15 -41 0 -39 -33 -59 -97 -59 l-53
0 0 105 0 105 48 0 c27 0 57 -7 70 -16z m176 -5 c31 -24 34 -61 8 -87 -18 -18
-18 -20 4 -51 12 -18 24 -29 27 -24 2 4 17 48 31 96 l27 88 37 -3 36 -3 32
-102 32 -103 -29 0 c-22 0 -30 6 -35 25 -5 20 -13 25 -35 25 -22 0 -32 -6 -39
-25 -8 -22 -15 -25 -60 -25 -48 0 -51 2 -77 43 l-28 42 -3 -42 c-3 -38 -6 -43
-28 -43 -24 0 -24 0 -24 105 l0 105 49 0 c34 0 56 -6 75 -21z m370 0 c31 -24
34 -61 8 -86 -18 -17 -17 -19 10 -60 l29 -43 -30 0 c-25 0 -36 8 -58 43 l-28
42 -3 -42 c-3 -38 -6 -43 -28 -43 -24 0 -24 0 -24 105 l0 105 49 0 c34 0 56
-6 75 -21z m103 -26 l20 -48 21 48 c17 38 26 47 46 47 14 0 26 -2 26 -5 0 -3
-16 -37 -35 -75 -19 -38 -35 -83 -35 -100 0 -25 -4 -30 -25 -30 -22 0 -25 4
-25 35 0 21 -15 65 -35 105 l-35 70 29 0 c25 0 31 -6 48 -47z m-1332 -261 c7
-29 15 -55 17 -58 3 -2 11 23 17 56 l12 60 40 0 39 0 0 -105 0 -105 -25 0
c-24 0 -25 3 -26 58 l-1 57 -16 -57 c-13 -49 -20 -58 -39 -58 -19 0 -25 10
-42 63 l-19 62 -1 -62 c-1 -60 -2 -63 -26 -63 l-25 0 0 106 0 105 42 -3 c41
-3 42 -3 53 -56z m311 -49 l32 -103 -29 0 c-22 0 -30 6 -35 25 -5 20 -13 25
-35 25 -22 0 -32 -6 -39 -25 -7 -18 -17 -25 -35 -25 -14 0 -25 3 -25 6 0 4 14
51 31 106 l30 99 37 -3 36 -3 32 -102z m141 37 l32 -65 0 68 c1 65 2 67 26 67
l25 0 0 -105 0 -105 -33 0 c-30 0 -35 5 -64 63 l-32 62 0 -62 c-1 -60 -2 -63
-26 -63 l-25 0 0 106 0 105 33 -3 c29 -3 35 -10 64 -68z m258 -17 c14 -49 28
-96 31 -105 9 -31 -44 -24 -56 7 -7 19 -17 25 -39 25 -22 0 -30 -5 -35 -25 -5
-19 -13 -25 -35 -25 l-29 0 25 82 c40 131 38 128 77 128 l35 0 26 -87z m190
62 c14 -13 25 -29 25 -35 0 -13 -47 -13 -55 0 -11 17 -54 11 -65 -9 -25 -47 1
-105 43 -99 24 4 36 28 13 28 -9 0 -16 8 -16 20 0 17 7 20 40 20 l40 0 0 -45
c0 -34 -5 -47 -19 -55 -22 -11 -90 -14 -116 -4 -24 10 -45 58 -45 104 0 86 98
133 155 75z m185 0 c0 -22 -4 -25 -40 -25 -29 0 -40 -4 -40 -15 0 -10 11 -15
35 -15 31 0 35 -3 35 -25 0 -22 -4 -25 -35 -25 -28 0 -35 -4 -35 -20 0 -17 7
-20 40 -20 33 0 40 -3 40 -20 0 -18 -7 -20 -65 -20 l-65 0 0 105 0 105 65 0
c63 0 65 -1 65 -25z m121 -40 c18 -66 15 -68 38 30 6 27 12 30 49 33 l42 3 0
-105 0 -106 -25 0 c-24 0 -25 3 -26 63 l-1 62 -19 -62 c-17 -54 -23 -63 -43
-63 -19 0 -26 9 -38 53 l-16 52 -1 -52 c-1 -50 -3 -53 -26 -53 l-25 0 0 106 0
105 38 -3 c36 -3 37 -4 53 -63z m289 40 c0 -22 -4 -25 -40 -25 -29 0 -40 -4
-40 -15 0 -10 11 -15 35 -15 31 0 35 -3 35 -25 0 -22 -4 -25 -35 -25 -28 0
-35 -4 -35 -20 0 -17 7 -20 40 -20 33 0 40 -3 40 -20 0 -18 -7 -20 -65 -20
l-65 0 0 105 0 105 65 0 c63 0 65 -1 65 -25z m118 -37 l27 -63 5 60 c4 53 8
60 28 63 22 3 22 2 22 -102 l0 -106 -30 0 c-26 0 -33 7 -59 58 l-30 57 -1 -57
c0 -55 -1 -58 -25 -58 l-25 0 0 105 0 105 30 0 c28 0 33 -6 58 -62z m257 37
c0 -13 -8 -21 -22 -23 -22 -3 -23 -8 -23 -83 l0 -79 -30 0 -30 0 0 80 c0 79 0
80 -25 80 -18 0 -25 5 -25 18 0 30 10 33 85 30 62 -3 70 -5 70 -23z m-552
-392 c-227 -2 -599 -2 -825 0 -227 1 -42 2 412 2 454 0 639 -1 413 -2z m-1107
-169 c-4 -10 -2 -13 6 -8 7 5 77 7 155 7 79 -1 146 3 149 8 3 5 11 9 17 9 8 0
7 -3 -2 -9 -9 -6 6 -9 42 -8 65 1 72 -3 63 -38 -10 -38 -51 -29 -69 15 -4 12
-6 11 -6 -2 -1 -11 -9 -18 -21 -18 -12 0 -20 7 -21 18 -1 16 -2 16 -6 0 -4
-15 -17 -17 -104 -16 -75 1 -103 -2 -109 -12 -7 -11 -11 -11 -22 1 -8 8 -17
21 -21 29 -4 12 -6 11 -6 -2 -1 -14 -10 -18 -41 -18 -38 0 -40 2 -40 30 0 24
4 30 21 30 15 0 19 -5 15 -16z m464 -9 c0 -14 5 -25 10 -25 6 0 10 7 10 15 0
8 6 15 13 15 8 0 7 4 -3 10 -12 8 -11 10 7 10 12 0 24 -4 27 -9 7 -11 126 -11
126 1 0 4 7 8 16 8 8 0 13 -4 10 -9 -3 -5 12 -8 35 -7 29 2 43 -2 49 -15 13
-23 3 -29 -52 -29 -36 0 -48 4 -48 15 0 8 -4 15 -10 15 -5 0 -10 -7 -10 -15 0
-10 -10 -15 -31 -15 -24 0 -30 4 -25 15 3 8 1 15 -4 15 -6 0 -10 -7 -10 -15 0
-12 -14 -15 -65 -15 l-65 0 0 30 c0 17 5 30 10 30 6 0 10 -11 10 -25z m468 12
c6 -5 12 -18 12 -28 0 -18 -7 -19 -77 -17 -65 3 -78 6 -81 21 -3 14 4 17 33
17 22 0 34 4 30 10 -8 13 65 11 83 -3z m125 -2 c15 -2 27 2 27 7 0 6 7 7 18 2
23 -10 122 -12 122 -2 0 4 7 8 15 8 8 0 15 -3 15 -7 0 -5 28 -9 62 -10 34 -2
63 -5 66 -8 3 -3 0 -16 -6 -29 -9 -19 -18 -24 -44 -23 -18 1 -32 7 -31 12 1 6
-26 9 -68 7 -61 -3 -69 -2 -70 15 -1 16 -2 16 -6 1 -2 -10 -13 -18 -24 -18
-11 0 -19 7 -20 18 -1 16 -2 16 -6 -1 -4 -15 -15 -17 -69 -16 -44 1 -64 6 -64
15 0 7 -3 20 -7 30 -6 15 -2 16 28 9 19 -4 46 -9 62 -10z"/>
<path d="M2160 2805 c1 -26 2 -28 11 -12 8 14 8 22 0 30 -8 8 -11 3 -11 -18z"/>
<path d="M2263 2801 c-12 -19 -10 -20 23 -17 41 4 58 16 22 16 -15 0 -28 5
-30 10 -2 6 -9 1 -15 -9z"/>
<path d="M1820 2345 c0 -27 1 -28 24 -19 28 11 13 44 -20 44 -2 0 -4 -11 -4
-25z"/>
<path d="M1820 2265 c0 -18 5 -25 19 -25 26 0 36 17 21 35 -19 23 -40 18 -40
-10z"/>
<path d="M1990 2340 c0 -13 7 -20 20 -20 13 0 20 7 20 20 0 13 -7 20 -20 20
-13 0 -20 -7 -20 -20z"/>
<path d="M2188 2325 c-7 -34 -5 -38 15 -33 13 2 13 8 3 33 l-13 30 -5 -30z"/>
<path d="M2360 2340 c0 -13 7 -20 20 -20 13 0 20 7 20 20 0 13 -7 20 -20 20
-13 0 -20 -7 -20 -20z"/>
<path d="M1438 2075 c-7 -34 -5 -38 15 -33 13 2 13 8 3 33 l-13 30 -5 -30z"/>
<path d="M1842 2071 c-10 -28 -9 -31 9 -31 16 0 18 5 13 28 -9 37 -10 37 -22
3z"/>
<path d="M2480 1549 c0 -5 5 -7 10 -4 6 3 10 8 10 11 0 2 -4 4 -10 4 -5 0 -10
-5 -10 -11z"/>
</g>
</svg>
